<?xml version="1.0" encoding="UTF-8"?>
<svg version="1.1" xmlns="http://www.w3.org/2000/svg" width="1500" height="294">
<path d="M0 0 C3.54248225 1.18082742 4.00175934 2.06034734 6.0390625 5.0859375 C6.61503174 5.92898437 7.19100098 6.77203125 7.78442383 7.640625 C8.69550903 8.99414062 8.69550903 8.99414062 9.625 10.375 C14.16366086 16.99618753 18.75570095 23.37357604 23.9296875 29.51171875 C30.09785107 36.92515307 35.62213634 44.85097991 41.19677734 52.71362305 C44.77149216 57.73189303 48.4977149 62.61745497 52.28515625 67.4765625 C52.68395272 68.00949543 53.0827492 68.54242836 53.49363041 69.09151077 C54.66631738 70.57724208 55.91820015 72.00058171 57.19795132 73.39515305 C64.28361729 81.64868979 65.26207142 88.59390541 65.02172852 99.32519531 C65.01918432 100.93285478 65.02062563 102.54052467 65.02571106 104.1481781 C65.0282747 108.47677824 64.97567572 112.80309592 64.91254544 117.13116932 C64.85596513 121.66738361 64.85097206 126.20366062 64.84031677 130.74017334 C64.81243608 139.31447959 64.73870871 147.88774282 64.64817137 156.46159148 C64.54728386 166.22937152 64.49801795 175.99720357 64.45291245 185.76537561 C64.35904919 205.84416403 64.20092923 225.92201609 64 246 C64.99 246 65.98 246 67 246 C67.495 192.54 67.495 192.54 68 138 C71.9462227 138.98655567 75.14139383 140.47144242 78.6875 142.375 C79.34177979 142.7251416 79.99605957 143.0752832 80.67016602 143.43603516 C87.98973311 147.43041512 94.90556372 152.01772773 101.86376953 156.60205078 C110.47409402 162.23664712 119.1713942 167.66424578 128.26171875 172.4921875 C134.67719372 176.02481708 140.90830985 179.93887323 147 184 C147 184.66 147 185.32 147 186 C144.79154015 185.68839539 142.58323749 185.37567654 140.375 185.0625 C139.14523437 184.88847656 137.91546875 184.71445313 136.6484375 184.53515625 C133.4263145 184.06253221 130.21229144 183.53538191 127 183 C126.67 208.41 126.34 233.82 126 260 C128.64 260.33 131.28 260.66 134 261 C137.493502 261.57490382 140.96358337 262.25489695 144.4375 262.9375 C145.34693359 263.10701172 146.25636719 263.27652344 147.19335938 263.45117188 C148.05638672 263.62068359 148.91941406 263.79019531 149.80859375 263.96484375 C150.59032959 264.1155835 151.37206543 264.26632324 152.17749023 264.42163086 C153.07963257 264.70792358 153.07963257 264.70792358 154 265 C154.33 265.66 154.66 266.32 155 267 C157.12576782 267.46651207 157.12576782 267.46651207 159.5625 267.625 C161.026875 267.74875 162.49125 267.8725 164 268 C164 271.3 164 274.6 164 278 C58.73 278 -46.54 278 -155 278 C-155 274.7 -155 271.4 -155 268 C-152.72135417 267.8046875 -150.44270833 267.609375 -148.1640625 267.4140625 C-145.79665809 267.17107412 -145.79665809 267.17107412 -144 265 C-141.61743164 264.31396484 -141.61743164 264.31396484 -138.66015625 263.7109375 C-137.59732422 263.49179687 -136.53449219 263.27265625 -135.43945312 263.046875 C-134.32505859 262.82515625 -133.21066406 262.6034375 -132.0625 262.375 C-130.95197266 262.14554687 -129.84144531 261.91609375 -128.69726562 261.6796875 C-120.44380115 260 -120.44380115 260 -117 260 C-117 234.59 -117 209.18 -117 183 C-123.6 183.99 -130.2 184.98 -137 186 C-137 185.01 -137 184.02 -137 183 C-136.09378906 182.49210938 -135.18757813 181.98421875 -134.25390625 181.4609375 C-126.10437883 176.87792884 -126.10437883 176.87792884 -118.25 171.8125 C-115.36367697 169.8246614 -112.47850497 168.19530663 -109.31640625 166.6875 C-104.21344448 164.17069489 -99.46093028 161.27525197 -94.6875 158.1875 C-93.02377594 157.12447012 -91.35971242 156.06197135 -89.6953125 155 C-88.89383789 154.48695313 -88.09236328 153.97390625 -87.26660156 153.4453125 C-61.47635135 137 -61.47635135 137 -58 137 C-58 172.97 -58 208.94 -58 246 C-57.34 245.67 -56.68 245.34 -56 245 C-56.01106152 244.03700611 -56.01106152 244.03700611 -56.0223465 243.0545578 C-56.19923885 227.41297894 -56.33150951 211.77174931 -56.41449738 196.12941742 C-56.45569963 188.56475337 -56.5118427 181.00075812 -56.60351562 173.43652344 C-56.68340659 166.84129773 -56.73490136 160.24655647 -56.75270796 153.65086031 C-56.76311294 150.1601388 -56.78745468 146.67080282 -56.84584045 143.18052673 C-56.91058428 139.27829587 -56.91190951 135.37740402 -56.90820312 131.47460938 C-56.93696533 130.32517853 -56.96572754 129.17574768 -56.99536133 127.9914856 C-56.93448215 122.06161918 -56.43395722 118.74916849 -52.15808105 114.46252441 C-50.7786384 113.30048813 -49.39279159 112.1460026 -48 111 C-46.82957827 109.73057108 -45.67972007 108.44149387 -44.5625 107.125 C-41.77520605 103.89354143 -38.96495339 100.68541375 -36.125 97.5 C-35.36445313 96.6440625 -34.60390625 95.788125 -33.8203125 94.90625 C-33.21960938 94.2771875 -32.61890625 93.648125 -32 93 C-31.67 93 -31.34 93 -31 93 C-31 142.17 -31 191.34 -31 242 C-30.01 242 -29.02 242 -28 242 C-28.01106152 241.14008076 -28.02212303 240.28016151 -28.03351974 239.39418411 C-28.298949 218.43552032 -28.49730833 197.4771476 -28.62174606 176.51715469 C-28.68352911 166.38077549 -28.76770258 156.24552061 -28.90527344 146.10986328 C-29.02517485 137.27177808 -29.10236686 128.43450732 -29.12906194 119.59563136 C-29.14465918 114.91835193 -29.18109963 110.24340163 -29.26876068 105.56687164 C-29.35075106 101.15676719 -29.37523772 96.74993039 -29.35729218 92.33913612 C-29.36057039 90.72821286 -29.38413649 89.11717059 -29.4304657 87.50691032 C-29.77936996 74.74473312 -29.77936996 74.74473312 -25.35131073 69.43169403 C-22.44224218 66.36277743 -19.23890835 63.71191507 -16 61 C-13.51977505 58.1668711 -11.39725735 55.11574872 -9.23242188 52.03515625 C-8.21846454 50.64159758 -7.11615873 49.31312792 -6 48 C-5.01 48 -4.02 48 -3 48 C-2.67 110.7 -2.34 173.4 -2 238 C-1.34 238 -0.68 238 0 238 C0 159.46 0 80.92 0 0 Z M13 40 C13 105.34 13 170.68 13 238 C17.29 238.66 21.58 239.32 26 240 C26.21052404 216.21682936 26.3690876 192.43379899 26.46630955 168.64988327 C26.51265755 157.60578965 26.57581206 146.56227598 26.67895508 135.51855469 C26.76884356 125.88940762 26.82676725 116.26068068 26.84679645 106.63112569 C26.85849935 101.53515799 26.88587379 96.44039188 26.95157051 91.34481049 C27.01299745 86.5411488 27.03143761 81.73917493 27.01796913 76.93515778 C27.02043028 75.17919212 27.0381354 73.42316572 27.07284927 71.6675415 C27.27137489 61.10248701 26.35248777 54.51139789 19.32345486 46.37392044 C17.23006532 44.23506235 15.11624593 42.11624593 13 40 Z M38 71 C38 127.43 38 183.86 38 242 C42.62 242.33 47.24 242.66 52 243 C52.2320664 223.29329997 52.41023753 203.58698927 52.51812172 183.87920189 C52.56955906 174.72726124 52.63961082 165.5761882 52.75439453 156.42480469 C52.8544608 148.44295723 52.91867418 140.46173842 52.94088495 132.47928107 C52.95385736 128.25712735 52.98406403 124.03677109 53.05730057 119.81519699 C53.12585983 115.83044743 53.14598426 111.84821178 53.13107681 107.86292839 C53.13379827 106.41091743 53.15329234 104.95881071 53.19205475 103.50731468 C53.50100633 91.32713025 49.55161945 84.92890028 42 76 C40.68 74.35 39.36 72.7 38 71 Z M-95 180 C-95 204.09 -95 228.18 -95 253 C-85.43 251.35 -75.86 249.7 -66 248 C-66 223.91 -66 199.82 -66 175 C-75.80929265 175 -85.38119719 178.07623944 -95 180 Z M76 175 C76 198.76 76 222.52 76 247 C85.36482781 250.12160927 95.27458535 251.30862354 105 253 C105 228.91 105 204.82 105 180 C90.60309361 176.49967652 90.60309361 176.49967652 76 175 Z M-5.60522461 245.29174805 C-6.52062515 245.44123398 -7.4360257 245.59071991 -8.37916565 245.74473572 C-11.38888944 246.23907309 -14.39547154 246.75034726 -17.40234375 247.26171875 C-19.52419712 247.61338533 -21.64623574 247.96393578 -23.76844788 248.31343079 C-29.35794671 249.23679633 -34.94497535 250.17432936 -40.53155518 251.11517334 C-46.12587018 252.05522839 -51.72212236 252.98357631 -57.31835938 253.91210938 C-59.50754262 254.27545341 -61.69672112 254.63882599 -63.88589478 255.00222778 C-64.95526905 255.17973698 -66.02464333 255.35724617 -67.12642288 255.54013443 C-70.31467493 256.07003558 -73.50263322 256.60167223 -76.69052124 257.13375854 C-91.11038164 259.53823157 -105.53906128 261.85427608 -120 264 C-120 264.33 -120 264.66 -120 265 C-104.75234003 264.44457516 -89.64072179 262.38803093 -74.51187897 260.52075195 C-71.55273589 260.15647013 -68.59308532 259.7964028 -65.63344955 259.4361496 C-52.36668275 257.82001359 -39.10271827 256.1882342 -25.86328125 254.359375 C-24.99800308 254.23999573 -24.13272491 254.12061646 -23.2412262 253.99761963 C-19.44535605 253.47070763 -15.65177748 252.9317075 -11.8605957 252.37207031 C-9.92253052 252.09508301 -9.92253052 252.09508301 -7.9453125 251.8125 C-6.87812988 251.65394531 -5.81094727 251.49539062 -4.71142578 251.33203125 C4.9309197 250.46940858 14.19741702 251.20026913 23.7578125 252.5390625 C24.96048264 252.70058807 26.16315277 252.86211365 27.40226746 253.02853394 C30.64111584 253.46420273 33.87900544 253.90633645 37.11667252 254.35067749 C42.56677989 255.09512139 48.01990684 255.81739358 53.47249031 256.54343414 C55.55566079 256.82096257 57.63872357 257.09929018 59.7217865 257.37762451 C72.16162015 259.03666068 84.61180609 260.60533089 97.07147217 262.10858154 C99.21741895 262.36774722 101.36313526 262.62882897 103.50860596 262.89190674 C106.48041689 263.25587949 109.45292903 263.61339528 112.42578125 263.96875 C113.28455368 264.07460419 114.14332611 264.18045837 115.02812195 264.28952026 C120.05748876 264.87992378 124.93573317 265.09595682 130 265 C130 264.67 130 264.34 130 264 C114.90097959 261.53722045 99.80153639 259.07704554 84.70159245 256.61993504 C77.68977713 255.47888862 70.67810031 254.33700382 63.66674805 253.19311523 C56.89789676 252.08879267 50.12866201 250.9868464 43.35918999 249.88633537 C40.77916132 249.46650491 38.19926112 249.04588409 35.61949348 248.62445259 C32.00065564 248.03341815 28.38136737 247.44521904 24.76196289 246.85766602 C23.70028397 246.68359726 22.63860504 246.5095285 21.54475403 246.33018494 C18.69879459 245.86983198 15.85079345 245.42928401 13 245 C12.21135716 244.87391704 11.42271433 244.74783407 10.61017323 244.61793041 C4.97044578 243.82718012 -0.01508313 244.31765969 -5.60522461 245.29174805 Z M-128 265 C-128 265.33 -128 265.66 -128 266 C-125.36 266 -122.72 266 -120 266 C-120 265.67 -120 265.34 -120 265 C-122.64 265 -125.28 265 -128 265 Z M130 265 C130 265.33 130 265.66 130 266 C132.64 266 135.28 266 138 266 C138 265.67 138 265.34 138 265 C135.36 265 132.72 265 130 265 Z M-138 266 C-138 266.33 -138 266.66 -138 267 C-135.36 267 -132.72 267 -130 267 C-130 266.67 -130 266.34 -130 266 C-132.64 266 -135.28 266 -138 266 Z M139 266 C139 266.33 139 266.66 139 267 C141.97 267 144.94 267 148 267 C148 266.67 148 266.34 148 266 C145.03 266 142.06 266 139 266 Z " fill="#67BB3A" transform="translate(177,3)"/>
<path d="M0 0 C10.89 0 21.78 0 33 0 C34.99325121 6.64417069 36.86811996 13.21813968 38.48828125 19.94921875 C38.82415253 21.33523537 38.82415253 21.33523537 39.16680908 22.74925232 C39.88611795 25.72770388 40.59987746 28.70744209 41.3125 31.6875 C41.55644501 32.70301941 41.80039001 33.71853882 42.05172729 34.76483154 C45.48748767 49.10032826 48.65040829 63.44841824 51.24926758 77.9597168 C51.45704834 79.10996338 51.6648291 80.26020996 51.87890625 81.4453125 C52.0497876 82.43031738 52.22066895 83.41532227 52.39672852 84.43017578 C52.97664094 86.90049476 53.83115397 88.76580174 55 91 C56.69782991 83.89826483 58.3844859 76.7939436 60.0625 69.6875 C60.31265869 68.62844452 60.56281738 67.56938904 60.82055664 66.47824097 C64.47434499 50.96593629 67.87607416 35.4322079 70.80493164 19.76635742 C73.96793315 3.03206685 73.96793315 3.03206685 77 0 C79.36398468 -0.1007812 81.69811311 -0.13973215 84.0625 -0.1328125 C84.76898682 -0.13376923 85.47547363 -0.13472595 86.20336914 -0.13571167 C87.69970793 -0.13639333 89.19604967 -0.13454005 90.69238281 -0.13037109 C92.99030157 -0.12502257 95.28802486 -0.13031651 97.5859375 -0.13671875 C99.03645877 -0.13605797 100.48697991 -0.1347768 101.9375 -0.1328125 C102.6291626 -0.13483673 103.3208252 -0.13686096 104.03344727 -0.13894653 C108.88504776 -0.11495224 108.88504776 -0.11495224 110 1 C110.11324137 2.92682976 110.15579743 4.85782888 110.17167664 6.78791809 C110.18435577 8.04563522 110.19703491 9.30335236 110.21009827 10.59918213 C110.21919349 12.00598075 110.22817713 13.4127801 110.23706055 14.81958008 C110.24990582 16.29105477 110.26315997 17.76252594 110.27679443 19.23399353 C110.31249152 23.24231079 110.34167919 27.25065059 110.36918616 31.25903153 C110.3866627 33.76150538 110.40554267 36.2639645 110.42493629 38.76642418 C110.49254544 47.49179467 110.55495511 56.21718474 110.61254883 64.94262695 C110.66641619 73.08319973 110.73151263 81.22363017 110.80188721 89.36407548 C110.86175441 96.34579634 110.91382509 103.32754708 110.95981437 110.30937308 C110.98743311 114.48239017 111.01822288 118.65532544 111.05682945 122.82825661 C111.09287671 126.75403128 111.11923161 130.6797525 111.1381073 134.60564613 C111.14668838 136.04723109 111.15873696 137.48880017 111.17449379 138.93032455 C111.19545324 140.89718252 111.2027192 142.86417226 111.20927429 144.83113098 C111.2171934 145.93229657 111.22511251 147.03346216 111.2332716 148.16799641 C111.00176412 150.97858287 110.45708757 152.61643508 109 155 C105.04172765 155.05785647 101.0835633 155.09354717 97.125 155.125 C95.99707031 155.14175781 94.86914062 155.15851563 93.70703125 155.17578125 C92.09248047 155.18544922 92.09248047 155.18544922 90.4453125 155.1953125 C89.45031738 155.20578613 88.45532227 155.21625977 87.43017578 155.22705078 C85 155 85 155 83 153 C82.78269674 150.44234658 82.68861791 147.98962638 82.68115234 145.42919922 C82.67110672 144.64862152 82.6610611 143.86804382 82.65071106 143.06381226 C82.61976007 140.477445 82.60281108 137.8911818 82.5859375 135.3046875 C82.56723541 133.513917 82.54766273 131.7231554 82.5272522 129.93240356 C82.47582356 125.21422563 82.43625544 120.49601908 82.39910889 115.77770996 C82.35913634 110.96501528 82.3080133 106.15244069 82.2578125 101.33984375 C82.16092623 91.89331339 82.07656226 82.4467154 82 73 C80.62577883 79.09629951 79.25681394 85.19374913 77.89233398 91.29223633 C77.42919581 93.35895232 76.96471819 95.4253687 76.4987793 97.49145508 C74.10547455 108.10804158 71.79604519 118.70383606 69.98394775 129.4362793 C69.08585385 134.69791168 67.91858066 139.81211992 66.4375 144.9375 C66.22931641 145.70255859 66.02113281 146.46761719 65.80664062 147.25585938 C64.25976562 152.74023438 64.25976562 152.74023438 62 155 C59.45464859 155.19849071 57.04283241 155.27851775 54.5 155.25 C53.81035156 155.25773438 53.12070313 155.26546875 52.41015625 155.2734375 C47.25333293 155.25333293 47.25333293 155.25333293 45 153 C44.27319336 150.65380859 44.27319336 150.65380859 43.58984375 147.6484375 C43.32647217 146.50584473 43.06310059 145.36325195 42.79174805 144.18603516 C42.50984619 142.92839355 42.22794434 141.67075195 41.9375 140.375 C41.63706399 139.05894734 41.33602434 137.74303237 41.03442383 136.42724609 C40.19729868 132.76404166 39.37048528 129.09858262 38.54663086 125.43237305 C37.97416127 122.885024 37.40029422 120.33799265 36.82617188 117.79101562 C33.58616977 103.41268485 33.58616977 103.41268485 32.02124023 96.40771484 C31.83527283 95.57665222 31.64930542 94.7455896 31.45770264 93.88934326 C31.11095648 92.33927856 30.76498399 90.78904047 30.41998291 89.23858643 C30.26229431 88.53417419 30.10460571 87.82976196 29.94213867 87.10400391 C29.8078093 86.50165924 29.67347992 85.89931458 29.53507996 85.27871704 C28.72827772 81.84283052 27.86049749 78.42282037 27 75 C26.98786972 76.45912308 26.98786972 76.45912308 26.97549438 77.94772339 C26.89811721 87.10066004 26.81039959 96.2534465 26.71247292 105.40618706 C26.66245857 110.11206979 26.61612917 114.81792951 26.578125 119.52392578 C26.54133687 124.06275093 26.49499496 128.60138588 26.44193649 133.14004898 C26.42335801 134.87441813 26.40826291 136.60882809 26.39665604 138.3432579 C26.37985235 140.76663577 26.35083252 143.18957473 26.31884766 145.61279297 C26.31668747 146.33496002 26.31452728 147.05712708 26.31230164 147.80117798 C26.22810432 152.77189568 26.22810432 152.77189568 24 155 C21.69335938 155.25878906 21.69335938 155.25878906 18.84375 155.265625 C17.82152344 155.26820313 16.79929687 155.27078125 15.74609375 155.2734375 C14.67488281 155.26570312 13.60367187 155.25796875 12.5 155.25 C11.42878906 155.25773438 10.35757812 155.26546875 9.25390625 155.2734375 C8.23167969 155.27085937 7.20945312 155.26828125 6.15625 155.265625 C5.21587891 155.26336914 4.27550781 155.26111328 3.30664062 155.25878906 C1 155 1 155 -1 153 C-1.24888897 150.40126801 -1.24888897 150.40126801 -1.24723816 147.04040527 C-1.25143265 145.770009 -1.25562714 144.49961273 -1.25994873 143.1907196 C-1.25446482 141.7749321 -1.24878183 140.35914536 -1.24291992 138.94335938 C-1.24399236 137.45864274 -1.24593048 135.97392652 -1.24867249 134.48921204 C-1.25353006 130.45002767 -1.24585381 126.41095336 -1.23571944 122.3717823 C-1.22695355 118.15129847 -1.2286961 113.93081823 -1.2290802 109.71032715 C-1.22814288 102.62180737 -1.21944982 95.53333033 -1.20581055 88.44482422 C-1.19008431 80.24121763 -1.18481241 72.03765788 -1.1855461 63.8340373 C-1.18615582 55.95313839 -1.18105546 48.07225479 -1.17275429 40.19136047 C-1.16921738 36.83254375 -1.16739046 33.47373244 -1.16686058 30.11491394 C-1.16585822 26.16200729 -1.1597704 22.20914018 -1.14969444 18.25624657 C-1.14676621 16.80256072 -1.14554472 15.34887033 -1.14612198 13.89518166 C-1.14661046 11.91664842 -1.14035508 9.93811688 -1.13371277 7.95959473 C-1.13203692 6.85051003 -1.13036108 5.74142532 -1.12863445 4.59873199 C-1 2 -1 2 0 0 Z " fill="#67BB3A" transform="translate(1167,126)"/>
<path d="M0 0 C8.58 0 17.16 0 26 0 C28.34242838 5.99661664 30.67907574 11.99506897 33 18 C33.28246582 18.73041504 33.56493164 19.46083008 33.85595703 20.21337891 C36.39091076 26.79317683 38.8659558 33.36092542 40.875 40.125 C44.59142509 52.62285146 49.41934148 64.79813626 54 77 C54.01030746 76.0795842 54.02061493 75.1591684 54.03123474 74.21086121 C54.12914415 65.54392274 54.2316493 56.87705351 54.33933926 48.21023083 C54.39454319 43.75435549 54.44795919 39.29847356 54.49731445 34.8425293 C54.54499527 30.54366116 54.59733949 26.24487297 54.65294075 21.94610023 C54.67334744 20.30464985 54.69206332 18.66317755 54.70907402 17.02168846 C54.73315533 14.72555996 54.76320477 12.42958233 54.79467773 10.13354492 C54.81022202 8.82560471 54.8257663 7.51766449 54.84178162 6.17008972 C55 3 55 3 56 0 C64.91 0 73.82 0 83 0 C84.36667613 2.73335225 84.12908763 4.89864891 84.13371277 7.95959473 C84.14011024 9.86518913 84.14011024 9.86518913 84.14663696 11.8092804 C84.14628742 13.22506717 84.14582588 14.64085392 84.14526367 16.05664062 C84.14825441 17.54135727 84.15165674 19.02607313 84.15544128 20.51078796 C84.16429318 24.54993534 84.16661987 28.58906156 84.16725707 32.6282177 C84.16820508 35.99575161 84.17188205 39.36328055 84.17542917 42.73081255 C84.18357789 50.67226951 84.18601298 58.61371512 84.18530273 66.55517578 C84.1847015 74.75879885 84.19526151 82.96235625 84.2110464 91.1659627 C84.22410136 98.20037411 84.22948751 105.23476401 84.22884732 112.26918745 C84.22859178 116.47451044 84.23147416 120.67977509 84.24202538 124.88508606 C84.25167233 128.83801206 84.25180911 132.79082351 84.24450874 136.74375343 C84.24345871 138.19744343 84.24585041 139.65114043 84.2518692 141.10481834 C84.25953278 143.08333308 84.25377067 145.06188648 84.24723816 147.04040527 C84.24778293 148.14948997 84.24832769 149.25857468 84.24888897 150.40126801 C84 153 84 153 82 155 C78.04053109 155.48281258 74.04805689 155.37038975 70.0625 155.375 C68.95197266 155.39949219 67.84144531 155.42398438 66.69726562 155.44921875 C65.63314453 155.45308594 64.56902344 155.45695313 63.47265625 155.4609375 C62.00711304 155.47326416 62.00711304 155.47326416 60.51196289 155.48583984 C58 155 58 155 56.31396484 153.36987305 C54.73511158 150.52224602 53.60911038 147.68604577 52.50390625 144.62109375 C52.27415604 143.98871292 52.04440582 143.35633209 51.80769348 142.70478821 C51.05218423 140.61818045 50.30711576 138.52801749 49.5625 136.4375 C49.03691968 134.97743155 48.51103572 133.51747236 47.98486328 132.05761719 C43.47036409 119.48822573 39.12547657 106.85978328 34.83422852 94.21264648 C34.59153732 93.49827927 34.34884613 92.78391205 34.09880066 92.04789734 C33.44380296 90.118038 32.79091463 88.1874631 32.13818359 86.25683594 C31.16343038 83.46764505 30.10747897 80.73804226 29 78 C28.99191315 78.9204158 28.98382629 79.8408316 28.97549438 80.78913879 C28.89760758 89.45613499 28.81033487 98.12297459 28.71247292 106.78976917 C28.66249138 111.24563791 28.61616156 115.70148272 28.578125 120.1574707 C28.54129558 124.4564035 28.49494213 128.75513704 28.44193649 133.05389977 C28.42338005 134.69533486 28.40827671 136.33681269 28.39665604 137.97831154 C28.37981479 140.27456769 28.35078558 142.57036627 28.31884766 144.86645508 C28.30552399 146.17439529 28.29220032 147.48233551 28.2784729 148.82991028 C28 152 28 152 26 155 C23.50976563 155.37231445 23.50976563 155.37231445 20.40625 155.36328125 C19.29378906 155.36263672 18.18132812 155.36199219 17.03515625 155.36132812 C15.86855469 155.34521484 14.70195312 155.32910156 13.5 155.3125 C12.33339844 155.31572266 11.16679687 155.31894531 9.96484375 155.32226562 C1.26683218 155.26683218 1.26683218 155.26683218 -1 153 C-1.24888897 150.40126801 -1.24888897 150.40126801 -1.24723816 147.04040527 C-1.25143265 145.770009 -1.25562714 144.49961273 -1.25994873 143.1907196 C-1.25446482 141.7749321 -1.24878183 140.35914536 -1.24291992 138.94335938 C-1.24399236 137.45864274 -1.24593048 135.97392652 -1.24867249 134.48921204 C-1.25353006 130.45002767 -1.24585381 126.41095336 -1.23571944 122.3717823 C-1.22695355 118.15129847 -1.2286961 113.93081823 -1.2290802 109.71032715 C-1.22814288 102.62180737 -1.21944982 95.53333033 -1.20581055 88.44482422 C-1.19008431 80.24121763 -1.18481241 72.03765788 -1.1855461 63.8340373 C-1.18615582 55.95313839 -1.18105546 48.07225479 -1.17275429 40.19136047 C-1.16921738 36.83254375 -1.16739046 33.47373244 -1.16686058 30.11491394 C-1.16585822 26.16200729 -1.1597704 22.20914018 -1.14969444 18.25624657 C-1.14676621 16.80256072 -1.14554472 15.34887033 -1.14612198 13.89518166 C-1.14661046 11.91664842 -1.14035508 9.93811688 -1.13371277 7.95959473 C-1.13203692 6.85051003 -1.13036108 5.74142532 -1.12863445 4.59873199 C-1 2 -1 2 0 0 Z M27 72 C28 74 28 74 28 74 Z M55 81 C56 83 56 83 56 83 Z " fill="#67BB3A" transform="translate(484,126)"/>
<path d="M0 0 C1.084021 0.00523682 2.16804199 0.01047363 3.28491211 0.01586914 C5.03964844 0.02070312 5.03964844 0.02070312 6.82983398 0.02563477 C8.67738281 0.03820312 8.67738281 0.03820312 10.56225586 0.05102539 C12.41560547 0.05779297 12.41560547 0.05779297 14.30639648 0.06469727 C17.37089703 0.07652931 20.43530307 0.09301366 23.49975586 0.11352539 C24.86214662 2.83830691 24.61945544 4.98193394 24.61328125 8.03198242 C24.61320572 9.27311798 24.61313019 10.51425354 24.61305237 11.79299927 C24.60794536 13.15244588 24.60272936 14.51189209 24.59741211 15.87133789 C24.59554728 17.25853423 24.59412368 18.64573123 24.59312439 20.03292847 C24.58930434 23.68587051 24.57947841 27.33877287 24.56842041 30.99169922 C24.5581953 34.7185004 24.55362441 38.44530798 24.54858398 42.17211914 C24.53785569 49.48594142 24.52026303 56.79972279 24.49975586 64.11352539 C31.75975586 63.78352539 39.01975586 63.45352539 46.49975586 63.11352539 C46.48404541 60.41072388 46.48404541 60.41072388 46.46801758 57.65332031 C46.43577682 51.70218402 46.41279059 45.75107242 46.39613152 39.79987621 C46.38569104 36.19140435 46.37152713 32.5830269 46.34887695 28.97460938 C46.32715782 25.49275598 46.31518922 22.01099344 46.31000137 18.52907753 C46.30450359 16.55314256 46.28888918 14.57724417 46.27316284 12.60136414 C46.27293625 10.79983635 46.27293625 10.79983635 46.27270508 8.96191406 C46.26826385 7.90268234 46.26382263 6.84345062 46.25924683 5.75212097 C46.49975586 3.11352539 46.49975586 3.11352539 48.49975586 0.11352539 C51.11352539 -0.22705078 51.11352539 -0.22705078 54.38256836 -0.17944336 C55.54916992 -0.16977539 56.71577148 -0.16010742 57.91772461 -0.15014648 C59.14104492 -0.12500977 60.36436523 -0.09987305 61.62475586 -0.07397461 C63.47133789 -0.05367188 63.47133789 -0.05367188 65.35522461 -0.03295898 C68.40383429 0.00248997 71.45158086 0.0519046 74.49975586 0.11352539 C75.86643199 2.84687764 75.62884349 5.0121743 75.63346863 8.07312012 C75.6398661 9.97871452 75.6398661 9.97871452 75.64639282 11.92280579 C75.64604328 13.33859256 75.64558173 14.75437931 75.64501953 16.17016602 C75.64801027 17.65488266 75.6514126 19.13959852 75.65519714 20.62431335 C75.66404904 24.66346073 75.66637573 28.70258695 75.66701293 32.74174309 C75.66796094 36.109277 75.67163791 39.47680594 75.67518502 42.84433794 C75.68333375 50.7857949 75.68576884 58.72724051 75.68505859 66.66870117 C75.68445736 74.87232424 75.69501737 83.07588164 75.71080226 91.27948809 C75.72385722 98.3138995 75.72924337 105.3482894 75.72860318 112.38271284 C75.72834764 116.58803583 75.73123002 120.79330048 75.74178123 124.99861145 C75.75142819 128.95153745 75.75156497 132.9043489 75.7442646 136.85727882 C75.74321457 138.31096882 75.74560627 139.76466582 75.75162506 141.21834373 C75.75928864 143.19685847 75.75352653 145.17541187 75.74699402 147.15393066 C75.74753879 148.26301537 75.74808355 149.37210007 75.74864483 150.5147934 C75.49975586 153.11352539 75.49975586 153.11352539 73.49975586 155.11352539 C71.00952148 155.37231445 71.00952148 155.37231445 67.90600586 155.37915039 C66.79354492 155.38172852 65.68108398 155.38430664 64.53491211 155.38696289 C63.36831055 155.37922852 62.20170898 155.37149414 60.99975586 155.36352539 C59.8331543 155.37125977 58.66655273 155.37899414 57.46459961 155.38696289 C56.35213867 155.38438477 55.23967773 155.38180664 54.09350586 155.37915039 C53.0693457 155.37689453 52.04518555 155.37463867 50.98999023 155.37231445 C48.49975586 155.11352539 48.49975586 155.11352539 46.49975586 153.11352539 C46.25924683 150.55722046 46.25924683 150.55722046 46.27270508 147.28686523 C46.27285614 146.06575043 46.2730072 144.84463562 46.27316284 143.58651733 C46.28337683 142.24916421 46.29380884 140.91181274 46.30444336 139.57446289 C46.30817306 138.20968838 46.31102023 136.8449112 46.3130188 135.48013306 C46.32065872 131.88631816 46.34031014 128.29266466 46.36242676 124.69891357 C46.38287754 121.03245223 46.39201886 117.36596482 46.40209961 113.69946289 C46.42355585 106.50406826 46.45874074 99.30883999 46.49975586 92.11352539 C39.23975586 92.11352539 31.97975586 92.11352539 24.49975586 92.11352539 C24.51022949 93.91539307 24.52070312 95.71726074 24.53149414 97.57373047 C24.5637349 103.52486676 24.58672112 109.47597836 24.6033802 115.42717457 C24.61382068 119.03564644 24.62798459 122.64402388 24.65063477 126.25244141 C24.6723539 129.73429481 24.6843225 133.21605734 24.68951035 136.69797325 C24.69500813 138.67390822 24.71062254 140.64980661 24.72634888 142.62568665 C24.72649994 143.82670517 24.726651 145.02772369 24.72680664 146.26513672 C24.73124786 147.32436844 24.73568909 148.38360016 24.74026489 149.47492981 C24.49975586 152.11352539 24.49975586 152.11352539 22.49975586 155.11352539 C19.99365234 155.4699707 19.99365234 155.4699707 16.87084961 155.44165039 C15.75387695 155.43649414 14.6369043 155.43133789 13.48608398 155.42602539 C12.3149707 155.40540039 11.14385742 155.38477539 9.93725586 155.36352539 C8.76227539 155.35836914 7.58729492 155.35321289 6.37670898 155.34790039 C-2.34649961 155.26726992 -2.34649961 155.26726992 -3.50024414 154.11352539 C-3.59912226 152.14155001 -3.6265667 150.16598099 -3.62722778 148.19152832 C-3.63004761 146.90423325 -3.63286743 145.61693817 -3.63577271 144.29063416 C-3.63382811 142.85073839 -3.63177992 141.41084276 -3.62963867 139.97094727 C-3.63099265 138.46505186 -3.63277257 136.95915678 -3.63494873 135.45326233 C-3.63952342 131.35213732 -3.63773336 127.25103735 -3.63456964 123.14991188 C-3.63204623 118.86755936 -3.63438353 114.58520905 -3.63595581 110.30285645 C-3.63777756 103.11002211 -3.63537106 95.91719802 -3.63061523 88.72436523 C-3.6251726 80.39636205 -3.62693526 72.06838335 -3.63244164 63.74038076 C-3.63697262 56.60324693 -3.63762339 49.46612049 -3.63500297 42.32898569 C-3.63344011 38.06054184 -3.63324667 33.79210951 -3.63653946 29.52366638 C-3.63941795 25.51168605 -3.63744289 21.49973743 -3.6316452 17.48776054 C-3.63031749 16.01107778 -3.63071192 14.53439237 -3.63290787 13.05771065 C-3.63561888 11.05031552 -3.63162498 9.0429146 -3.62722778 7.03552246 C-3.62685076 5.90946846 -3.62647373 4.78341446 -3.62608528 3.62323761 C-3.45688037 0.24870026 -3.37533738 0.15325963 0 0 Z " fill="#67BB3B" transform="translate(787.500244140625,125.886474609375)"/>
<path d="M0 0 C8.58 0 17.16 0 26 0 C26 21.12 26 42.24 26 64 C33.59 63.67 41.18 63.34 49 63 C48.98428955 60.24390381 48.98428955 60.24390381 48.96826172 57.43212891 C48.93604407 51.36922892 48.91304527 45.30634916 48.89637566 39.24338722 C48.88592726 35.5665065 48.87174898 31.88971817 48.84912109 28.21289062 C48.82743009 24.66620345 48.81543933 21.11960528 48.81024551 17.5728569 C48.806543 16.21802748 48.79931311 14.86320306 48.78853989 13.50841141 C48.77407552 11.61454243 48.77318351 9.72058436 48.77294922 7.82666016 C48.768508 6.74744293 48.76406677 5.66822571 48.75949097 4.55630493 C49 2 49 2 51 0 C53.61376953 -0.22705078 53.61376953 -0.22705078 56.8828125 -0.1953125 C58.63271484 -0.18564453 58.63271484 -0.18564453 60.41796875 -0.17578125 C61.64128906 -0.15902344 62.86460938 -0.14226562 64.125 -0.125 C65.35605469 -0.11597656 66.58710937 -0.10695313 67.85546875 -0.09765625 C70.90383815 -0.07402548 73.95182382 -0.04108054 77 0 C77.87909871 3.78159865 78.1276689 7.28293951 78.13371277 11.16177368 C78.14011024 13.02090141 78.14011024 13.02090141 78.14663696 14.91758728 C78.14628749 16.2831116 78.14582598 17.6486359 78.14526367 19.01416016 C78.14825716 20.45828844 78.15166012 21.90241592 78.15544128 23.34654236 C78.16426289 27.26161639 78.16661853 31.17666856 78.16725707 35.09175158 C78.16820746 38.35992869 78.17188697 41.62810072 78.17542917 44.89627588 C78.18356554 52.60337925 78.18601402 60.31047095 78.18530273 68.01757812 C78.18470107 75.97301244 78.19527238 83.92837914 78.2110464 91.88379633 C78.22410691 98.71361474 78.22948731 105.54341098 78.22884732 112.37324178 C78.22859204 116.45279722 78.23146028 120.53229246 78.24202538 124.61183548 C78.25168217 128.44497221 78.25180229 132.27799086 78.24450874 136.11113167 C78.24346011 137.51925262 78.24584223 138.92738083 78.2518692 140.33548927 C78.25955198 142.25437596 78.25376183 144.17330263 78.24723816 146.0921936 C78.24778293 147.16696268 78.24832769 148.24173176 78.24888897 149.3490696 C78 152 78 152 76 155 C73.50976562 155.37231445 73.50976562 155.37231445 70.40625 155.36328125 C69.29378906 155.36263672 68.18132812 155.36199219 67.03515625 155.36132812 C65.86855469 155.34521484 64.70195313 155.32910156 63.5 155.3125 C61.75009766 155.31733398 61.75009766 155.31733398 59.96484375 155.32226562 C51.26683218 155.26683218 51.26683218 155.26683218 49 153 C48.75949097 150.44369507 48.75949097 150.44369507 48.77294922 147.17333984 C48.77310028 145.95222504 48.77325134 144.73111023 48.77340698 143.47299194 C48.78362097 142.13563882 48.79405298 140.79828735 48.8046875 139.4609375 C48.8084172 138.09616299 48.81126437 136.73138581 48.81326294 135.36660767 C48.82090286 131.77279277 48.84055428 128.17913927 48.8626709 124.58538818 C48.88312168 120.91892683 48.892263 117.25243943 48.90234375 113.5859375 C48.92379999 106.39054286 48.95898488 99.1953146 49 92 C41.41 92 33.82 92 26 92 C26.00785522 94.80939087 26.00785522 94.80939087 26.01586914 97.67553711 C26.03196688 103.85021346 26.04347233 110.02488486 26.05181217 116.19957638 C26.05704014 119.94483037 26.06413622 123.69006176 26.07543945 127.43530273 C26.08627141 131.04681687 26.09227749 134.65830921 26.09487724 138.26983833 C26.09673094 139.65060329 26.10035049 141.031367 26.10573006 142.41212273 C26.11294447 144.33975952 26.11340809 146.26741807 26.11352539 148.19506836 C26.115746 149.29427109 26.11796661 150.39347382 26.12025452 151.52598572 C26 154 26 154 25 155 C23.15840977 155.09959621 21.31303033 155.13080411 19.46875 155.1328125 C18.34855469 155.13410156 17.22835937 155.13539063 16.07421875 155.13671875 C14.89472656 155.13285156 13.71523438 155.12898437 12.5 155.125 C10.73076172 155.13080078 10.73076172 155.13080078 8.92578125 155.13671875 C7.24548828 155.13478516 7.24548828 155.13478516 5.53125 155.1328125 C4.49548828 155.13168457 3.45972656 155.13055664 2.39257812 155.12939453 C0 155 0 155 -1 154 C-1.09887812 152.02802462 -1.12632256 150.0524556 -1.12698364 148.07800293 C-1.12980347 146.79070786 -1.13262329 145.50341278 -1.13552856 144.17710876 C-1.13358396 142.737213 -1.13153578 141.29731736 -1.12939453 139.85742188 C-1.13074851 138.35152646 -1.13252843 136.84563139 -1.13470459 135.33973694 C-1.13927928 131.23861193 -1.13748922 127.13751196 -1.1343255 123.03638649 C-1.13180209 118.75403397 -1.13413939 114.47168366 -1.13571167 110.18933105 C-1.13753342 102.99649672 -1.13512692 95.80367263 -1.13037109 88.61083984 C-1.12492846 80.28283666 -1.12669112 71.95485796 -1.1321975 63.62685537 C-1.13672848 56.48972154 -1.13737925 49.3525951 -1.13475883 42.2154603 C-1.13319597 37.94701645 -1.13300253 33.67858412 -1.13629532 29.41014099 C-1.13917381 25.39816066 -1.13719875 21.38621204 -1.13140106 17.37423515 C-1.13007334 15.89755239 -1.13046778 14.42086698 -1.13266373 12.94418526 C-1.13537474 10.93679013 -1.13138084 8.92938921 -1.12698364 6.92199707 C-1.12660662 5.79594307 -1.12622959 4.66988907 -1.12584114 3.50971222 C-1 1 -1 1 0 0 Z " fill="#67BB3B" transform="translate(975,126)"/>
<path d="M0 0 C0.90335587 -0.00524185 1.80671173 -0.0104837 2.73744202 -0.0158844 C4.63932268 -0.02227974 6.54124303 -0.021 8.44311523 -0.01245117 C11.33584756 -0.00394099 14.22660289 -0.03273724 17.11914062 -0.06445312 C18.97525983 -0.06606551 20.8313825 -0.06548689 22.6875 -0.0625 C23.54294907 -0.07373398 24.39839813 -0.08496796 25.2797699 -0.09654236 C31.22409499 -0.02834469 35.34621739 1.35319706 40.41015625 4.43359375 C41.29703125 4.96984375 42.18390625 5.50609375 43.09765625 6.05859375 C50.9979728 14.17243237 51.56045065 24.08393578 51.55541992 34.79418945 C51.55877853 35.82424103 51.56213715 36.8542926 51.56559753 37.91555786 C51.5750797 41.31350925 51.5770493 44.71141121 51.578125 48.109375 C51.58133955 50.47820557 51.58470377 52.84703594 51.58821106 55.21586609 C51.59419554 60.17964132 51.59605166 65.14339915 51.59545898 70.10717773 C51.59535742 76.45552515 51.60900717 82.80376059 51.62623119 89.15208149 C51.63737102 94.04467782 51.63937758 98.93724725 51.63884926 103.82985497 C51.64002647 106.16972426 51.6444337 108.50959431 51.65218163 110.84945107 C51.66202115 114.12798442 51.65908771 117.4062769 51.65307617 120.68481445 C51.65869568 121.64355972 51.66431519 122.60230499 51.67010498 123.59010315 C51.62841056 132.57627592 50.68139724 141.53957363 44.41015625 148.43359375 C37.01221103 153.94907965 31.17150427 155.58548191 22.05859375 155.671875 C21.24452057 155.67994675 20.43044739 155.68801849 19.59170532 155.69633484 C17.86861277 155.71014718 16.14549319 155.72088205 14.42236328 155.72875977 C12.67488486 155.74024569 10.92744058 155.76064357 9.18017578 155.7902832 C-11.5079303 156.14089587 -11.5079303 156.14089587 -19.9921875 149.57421875 C-20.75208984 148.63835937 -20.75208984 148.63835937 -21.52734375 147.68359375 C-22.31431641 146.76320313 -22.31431641 146.76320313 -23.1171875 145.82421875 C-27.49515202 138.7172843 -28.02982627 132.37240481 -27.99389648 124.21923828 C-28.00075974 123.12222595 -28.00762299 122.02521362 -28.01469421 120.8949585 C-28.03292589 117.28530768 -28.02912943 113.67609303 -28.0234375 110.06640625 C-28.02800126 107.54588684 -28.03330741 105.02536867 -28.0393219 102.50485229 C-28.04824607 97.22764143 -28.04607338 91.95054279 -28.03588867 86.67333984 C-28.02441656 80.59520687 -28.03847524 74.51751562 -28.06528515 68.43944085 C-28.09021063 62.56612007 -28.09260348 56.69296969 -28.08616829 50.81960678 C-28.08601536 48.33263286 -28.09203594 45.84565032 -28.10445976 43.35870743 C-28.11941366 39.87438808 -28.10865885 36.39102856 -28.09155273 32.90673828 C-28.1012207 31.88927521 -28.11088867 30.87181213 -28.12084961 29.82351685 C-28.03493265 21.4241548 -26.03693963 13.38800803 -20.27734375 6.99609375 C-19.47876953 6.06990234 -19.47876953 6.06990234 -18.6640625 5.125 C-12.89805252 0.42315005 -7.15311779 -0.02448935 0 0 Z M0.41015625 28.43359375 C0.11353004 31.56257994 0.01142469 34.4936848 0.0378418 37.625 C0.03419113 38.57792938 0.03054047 39.53085876 0.02677917 40.51266479 C0.0186492 43.67398704 0.0323042 46.83480064 0.046875 49.99609375 C0.04739331 52.18562825 0.04687673 54.37516322 0.04536438 56.56469727 C0.04545421 61.15811084 0.05590634 65.7513493 0.07397461 70.34472656 C0.09666208 76.24326431 0.09720704 82.14154599 0.09045696 88.04011536 C0.08712119 92.56272675 0.09373968 97.08527938 0.1035862 101.60787964 C0.10744525 103.78327121 0.10858351 105.95866931 0.10700035 108.13406372 C0.10663097 111.17023249 0.11921416 114.20606853 0.13549805 117.2421875 C0.13302063 118.14822723 0.13054321 119.05426697 0.12799072 119.98776245 C-0.06210905 124.69429774 -0.06210905 124.69429774 2.41015625 128.43359375 C5.69257203 129.5813427 8.89234133 129.5993074 12.34765625 129.62109375 C13.87712891 129.64236328 13.87712891 129.64236328 15.4375 129.6640625 C18.51602787 129.42538557 20.66700566 128.8321589 23.41015625 127.43359375 C25.10673339 124.04043948 24.57582364 120.17543396 24.5871582 116.44165039 C24.5937294 115.50983444 24.6003006 114.57801849 24.60707092 113.6179657 C24.62682391 110.52655972 24.63846922 107.43520229 24.6484375 104.34375 C24.65251303 103.29020262 24.65658855 102.23665524 24.66078758 101.15118217 C24.68165401 95.57808502 24.69595488 90.00501255 24.70532227 84.43188477 C24.71640517 78.66338347 24.75082522 72.89526597 24.79049397 67.12690067 C24.81657879 62.70119995 24.82500671 58.27559194 24.82860374 53.84982109 C24.83348855 51.72267494 24.84515591 49.59553343 24.86364174 47.46846199 C24.88786671 44.49697102 24.88709902 41.52649013 24.88012695 38.55493164 C24.89293701 37.67118866 24.90574707 36.78744568 24.91894531 35.87692261 C24.99835639 31.16703563 24.99835639 31.16703563 22.50372314 27.38677979 C20.28418171 26.37623844 18.83434105 26.05954427 16.40625 26.0703125 C15.29540039 26.0712793 15.29540039 26.0712793 14.16210938 26.07226562 C13.39833984 26.08837891 12.63457031 26.10449219 11.84765625 26.12109375 C11.08001953 26.11787109 10.31238281 26.11464844 9.52148438 26.11132812 C5.65022761 26.14845439 3.69643083 26.24274403 0.41015625 28.43359375 Z " fill="#67BB3A" transform="translate(612.58984375,125.56640625)"/>
<path d="M0 0 C0.81482346 -0.01283524 1.62964691 -0.02567047 2.46916199 -0.03889465 C3.34728043 -0.04628159 4.22539886 -0.05366852 5.13012695 -0.0612793 C6.49365044 -0.07338692 6.49365044 -0.07338692 7.88471985 -0.08573914 C9.81049702 -0.09957079 11.7362986 -0.11029706 13.66210938 -0.11816406 C16.59008071 -0.13533195 19.5169094 -0.17922069 22.44458008 -0.22338867 C24.31892076 -0.23352013 26.19327102 -0.24203482 28.06762695 -0.2487793 C28.93562424 -0.26628738 29.80362152 -0.28379547 30.69792175 -0.30183411 C38.01635265 -0.27605639 43.09115351 1.78902641 48.6809082 6.48950195 C53.43860501 12.17230647 56.04475497 17.51386371 56.0713501 24.97003174 C56.07706024 25.93159683 56.08277039 26.89316193 56.08865356 27.88386536 C56.09033035 29.45644356 56.09033035 29.45644356 56.09204102 31.06079102 C56.09948837 32.72488258 56.09948837 32.72488258 56.10708618 34.42259216 C56.12170141 38.09594339 56.12850897 41.76925142 56.1340332 45.44262695 C56.13978542 47.99607342 56.14554315 50.54951987 56.15130615 53.10296631 C56.16047153 57.77495123 56.16677241 62.4469232 56.1698029 67.11891484 C56.17427951 73.981463 56.1918118 80.84381157 56.2208035 87.70629907 C56.24508445 93.66180107 56.25275014 99.61725374 56.25447845 105.57280731 C56.25750238 108.10051306 56.26552211 110.62821802 56.27866364 113.15589142 C56.29575401 116.6959588 56.29383618 120.23554264 56.28735352 123.77563477 C56.2965683 124.81592331 56.30578308 125.85621185 56.3152771 126.92802429 C56.26632668 135.4789019 54.48112673 142.39340153 48.9309082 149.17700195 C42.48079444 153.95952533 35.58126443 155.48917266 27.63793945 155.51293945 C26.4579261 155.52292465 26.4579261 155.52292465 25.2540741 155.53311157 C23.59421103 155.54319843 21.93430774 155.54792983 20.27441406 155.54760742 C17.76793365 155.55195937 15.26324715 155.58825968 12.75708008 155.6262207 C2.03313481 155.70273788 -7.81746774 155.37680555 -16.1315918 147.73950195 C-22.89684355 140.11850237 -22.2189462 130.28992932 -22.21435547 120.62109375 C-22.21771408 119.59396271 -22.22107269 118.56683167 -22.22453308 117.50857544 C-22.23399028 114.13111138 -22.23598354 110.75369716 -22.23706055 107.3762207 C-22.24027668 105.01503988 -22.24364102 102.65385925 -22.24714661 100.29267883 C-22.25312474 95.34924864 -22.25498785 90.4058359 -22.25439453 85.46240234 C-22.25429297 79.14793936 -22.26794532 72.83358896 -22.28516674 66.51915264 C-22.29631971 61.64363599 -22.29831273 56.76814628 -22.29778481 51.89261818 C-22.29895994 49.56556625 -22.30335536 47.23851351 -22.31111717 44.91147423 C-22.32098404 41.64793525 -22.31801269 38.38463714 -22.31201172 35.12109375 C-22.31763123 34.17268112 -22.32325073 33.22426849 -22.32904053 32.24711609 C-22.28426796 22.59902997 -21.97867243 13.9850756 -14.9440918 6.83325195 C-10.40364582 2.82252468 -6.22219308 0.08562792 0 0 Z M5.9309082 28.17700195 C4.61696584 32.11882904 4.7834602 35.88198228 4.78564453 39.99121094 C4.78228592 40.89230591 4.77892731 41.79340088 4.77546692 42.72180176 C4.76595469 45.70558036 4.76401372 48.68930287 4.76293945 51.6730957 C4.75972727 53.74430871 4.75636323 55.81552149 4.75285339 57.88673401 C4.74686159 62.23032152 4.74501357 66.57388912 4.74560547 70.91748047 C4.74570714 76.48731619 4.73204983 82.05702458 4.71483326 87.6268301 C4.70372359 91.90502002 4.70168594 96.18317904 4.70221519 100.46138191 C4.70103371 102.51511131 4.69660256 104.56884146 4.68888283 106.62255669 C4.67910304 109.49292847 4.68195297 112.36302233 4.68798828 115.23339844 C4.68236877 116.08392288 4.67674927 116.93444733 4.67095947 117.81074524 C4.69243171 121.8225231 4.83725083 124.73296575 6.9309082 128.17700195 C10.22351801 129.58812044 13.83134505 129.3440565 17.3684082 129.36450195 C19.03709961 129.38577148 19.03709961 129.38577148 20.73950195 129.4074707 C23.92177254 129.17766169 26.02834397 128.42051801 28.9309082 127.17700195 C29.00030288 114.30358109 29.05366581 101.43020444 29.08634472 88.5566349 C29.10202595 82.57943763 29.12330904 76.60236796 29.15722656 70.62524414 C29.18973237 64.86107498 29.20774268 59.09702883 29.21553993 53.33277512 C29.22109925 51.12944984 29.23195465 48.92613158 29.24809837 46.72285843 C29.26975589 43.64573667 29.27288003 40.5691286 29.27148438 37.49194336 C29.2822702 36.5734108 29.29305603 35.65487823 29.3041687 34.70851135 C29.30004471 33.87276077 29.29592072 33.03701019 29.29167175 32.17593384 C29.29581982 31.08360915 29.29581982 31.08360915 29.30005169 29.9692173 C29.06343282 27.75760024 29.06343282 27.75760024 25.9309082 26.17700195 C23.05679113 25.98156199 20.30208104 25.89824229 17.4309082 25.92700195 C16.65875977 25.91926758 15.88661133 25.9115332 15.09106445 25.90356445 C11.19459352 25.91707042 9.24103573 25.97025027 5.9309082 28.17700195 Z " fill="#67BB3A" transform="translate(1092.069091796875,125.822998046875)"/>
<path d="M0 0 C0.90194092 -0.0038269 1.80388184 -0.00765381 2.7331543 -0.01159668 C4.62908045 -0.01430351 6.52504474 -0.00702899 8.42089844 0.00976562 C11.30489219 0.03119347 14.18639522 0.00992248 17.0703125 -0.015625 C18.92188044 -0.01298151 20.77344684 -0.00785608 22.625 0 C23.47731201 -0.00809692 24.32962402 -0.01619385 25.20776367 -0.02453613 C32.44566999 0.08751574 37.5867901 2.17722782 43.0625 6.90625 C49.1198692 13.97318074 51.59095447 20.2051216 51.5078125 29.55859375 C51.50136719 30.84443359 51.49492188 32.13027344 51.48828125 33.45507812 C51.47157601 34.79297154 51.45464619 36.13086217 51.4375 37.46875 C51.42745322 38.83397783 51.41833036 40.1992128 51.41015625 41.56445312 C51.38667605 44.88690199 51.35383359 48.20898321 51.3125 51.53125 C47.07061293 53.65219354 41.47309282 52.76065069 36.8125 52.78125 C35.64589844 52.801875 34.47929688 52.8225 33.27734375 52.84375 C32.16488281 52.84890625 31.05242187 52.8540625 29.90625 52.859375 C28.88208984 52.8687207 27.85792969 52.87806641 26.80273438 52.88769531 C25.98095703 52.77006836 25.15917969 52.65244141 24.3125 52.53125 C22.22226314 49.39589471 22.04410364 48.49658251 21.93359375 44.8984375 C21.89943359 44.01027344 21.86527344 43.12210938 21.83007812 42.20703125 C21.80365234 41.28277344 21.77722656 40.35851562 21.75 39.40625 C21.69032118 37.57017384 21.62673412 35.7342191 21.55859375 33.8984375 C21.53466553 33.08487793 21.5107373 32.27131836 21.48608398 31.43310547 C21.51614375 29.52159084 21.51614375 29.52159084 20.3125 28.53125 C18.89679877 28.44473389 17.476905 28.42420096 16.05859375 28.43359375 C15.2895874 28.43609131 14.52058105 28.43858887 13.72827148 28.44116211 C12.2540271 28.45481812 12.2540271 28.45481812 10.75 28.46875 C6.0784375 28.4996875 6.0784375 28.4996875 1.3125 28.53125 C0.9825 39.09125 0.6525 49.65125 0.3125 60.53125 C1.9625 60.86125 3.6125 61.19125 5.3125 61.53125 C7.14189121 62.07473904 8.96325613 62.6457117 10.77734375 63.23828125 C11.81858398 63.57577393 12.85982422 63.9132666 13.93261719 64.26098633 C15.02735352 64.61829834 16.12208984 64.97561035 17.25 65.34375 C25.33870186 67.96797828 33.40921425 70.50311094 41.640625 72.64453125 C46.06675993 74.1134386 48.71020387 75.62780581 51.3125 79.53125 C51.57992554 81.91273499 51.57992554 81.91273499 51.60302734 84.76196289 C51.61578705 85.83060074 51.62854675 86.89923859 51.64169312 88.0002594 C51.64391876 89.15646286 51.64614441 90.31266632 51.6484375 91.50390625 C51.6584227 93.29313759 51.6584227 93.29313759 51.66860962 95.11851501 C51.67874654 97.64792335 51.68342632 100.17735848 51.68310547 102.70678711 C51.68745543 106.55433148 51.72370205 110.40070732 51.76171875 114.24804688 C51.76759148 116.70832943 51.77155782 119.16861741 51.7734375 121.62890625 C51.78780853 122.77094009 51.80217957 123.91297394 51.81698608 125.08961487 C51.76656673 134.02675451 50.19150153 141.54646604 44.1875 148.40625 C35.41203003 156.20730164 25.36449305 156.13922973 14.24438477 155.99780273 C11.75144044 155.96876678 9.26062048 155.97724084 6.76757812 155.99023438 C-3.68170445 155.97697892 -13.07460872 155.82189827 -21.18359375 148.27734375 C-28.00083636 140.36225948 -27.89991779 131.4501752 -27.92773438 121.52197266 C-27.9375003 119.40618449 -27.96857832 117.29134422 -28 115.17578125 C-28.00652497 113.83333909 -28.01177742 112.49089001 -28.015625 111.1484375 C-28.02964355 109.31708252 -28.02964355 109.31708252 -28.04394531 107.44873047 C-27.92631836 106.48596191 -27.80869141 105.52319336 -27.6875 104.53125 C-24.42893956 102.35887638 -23.46107656 102.27522349 -19.6875 102.265625 C-18.2334375 102.26175781 -18.2334375 102.26175781 -16.75 102.2578125 C-15.739375 102.26554687 -14.72875 102.27328125 -13.6875 102.28125 C-12.676875 102.27351563 -11.66625 102.26578125 -10.625 102.2578125 C-9.655625 102.26039063 -8.68625 102.26296875 -7.6875 102.265625 C-6.800625 102.26788086 -5.91375 102.27013672 -5 102.27246094 C-2.6875 102.53125 -2.6875 102.53125 0.3125 104.53125 C0.71313477 106.65429688 0.71313477 106.65429688 0.75390625 109.25 C0.78033203 110.18199219 0.80675781 111.11398438 0.83398438 112.07421875 C0.84751953 113.05003906 0.86105469 114.02585937 0.875 115.03125 C0.90936982 116.95850587 0.95193695 118.88563839 1.00390625 120.8125 C1.01623291 121.66908203 1.02855957 122.52566406 1.04125977 123.40820312 C1.12000381 125.74661652 1.12000381 125.74661652 3.3125 127.53125 C6.01881694 127.7033111 8.6096394 127.76364017 11.3125 127.71875 C12.41851563 127.7177832 12.41851563 127.7177832 13.546875 127.71679688 C17.5604229 127.75916704 17.5604229 127.75916704 21.3125 126.53125 C21.6425 116.96125 21.9725 107.39125 22.3125 97.53125 C18.62320312 96.31888672 18.62320312 96.31888672 14.859375 95.08203125 C12.43615178 94.28212438 10.01346448 93.48061378 7.59082031 92.67895508 C5.92730937 92.12943104 4.26325992 91.581534 2.59863281 91.03540039 C-24.64626123 82.09310815 -24.64626123 82.09310815 -27.6875 77.53125 C-27.95492554 75.11180115 -27.95492554 75.11180115 -27.97802734 72.20874023 C-27.99078705 71.12008163 -28.00354675 70.03142303 -28.01669312 68.90977478 C-28.01891876 67.73169754 -28.02114441 66.5536203 -28.0234375 65.33984375 C-28.0300943 64.12482681 -28.0367511 62.90980988 -28.04360962 61.65797424 C-28.05374689 59.08148717 -28.05842631 56.50497379 -28.05810547 53.9284668 C-28.06245588 50.00850266 -28.09870354 46.08968502 -28.13671875 42.16992188 C-28.14259137 39.66406634 -28.14655778 37.15820546 -28.1484375 34.65234375 C-28.16280853 33.48843613 -28.17717957 32.3245285 -28.19198608 31.12535095 C-28.13784992 21.35324124 -25.94968669 13.66483525 -19.640625 6.1015625 C-13.51260868 1.17463738 -7.7246158 -0.07338349 0 0 Z " fill="#68BB3B" transform="translate(1418.6875,125.46875)"/>
<path d="M0 0 C1.0305249 0.00410889 2.0610498 0.00821777 3.12280273 0.01245117 C4.23977539 0.01438477 5.35674805 0.01631836 6.50756836 0.01831055 C8.26423828 0.03667969 8.26423828 0.03667969 10.05639648 0.05541992 C11.23137695 0.05606445 12.40635742 0.05670898 13.61694336 0.05737305 C22.35377508 0.10279852 22.35377508 0.10279852 23.49389648 1.24291992 C23.61704819 2.99130827 23.67177459 4.74456497 23.69921875 6.49707031 C23.71916397 7.61815689 23.73910919 8.73924347 23.75965881 9.89430237 C23.77637131 11.11407272 23.7930838 12.33384308 23.81030273 13.59057617 C23.83108383 14.83213974 23.85186493 16.07370331 23.87327576 17.35289001 C23.92773258 20.65891115 23.97793853 23.96494238 24.02612305 27.27105713 C24.07629504 30.64259483 24.1320035 34.01404045 24.18725586 37.38549805 C24.29459687 44.00456543 24.39633847 50.62370152 24.49389648 57.24291992 C24.96698242 56.26121826 25.44006836 55.2795166 25.92749023 54.26806641 C27.72108875 50.5482963 29.5188026 46.83052665 31.31762695 43.11328125 C32.0885688 41.51875334 32.85846386 39.92371879 33.62719727 38.328125 C38.15466915 28.93288106 42.79843716 19.63226363 47.76733398 10.46191406 C48.93312996 8.28841012 50.06272898 6.09515682 51.15795898 3.88525391 C52.49389648 1.24291992 52.49389648 1.24291992 53.49389648 0.24291992 C55.49354631 0.15533989 57.49625758 0.13595416 59.49780273 0.14526367 C60.71274414 0.14848633 61.92768555 0.15170898 63.17944336 0.1550293 C64.45883789 0.1634082 65.73823242 0.17178711 67.05639648 0.18041992 C68.3396582 0.18493164 69.62291992 0.18944336 70.94506836 0.1940918 C74.12805671 0.20592447 77.31095411 0.22240924 80.49389648 0.24291992 C80.61824817 3.96850966 80.56951121 6.83116805 79.02514648 10.23901367 C78.70545898 10.95460449 78.38577148 11.67019531 78.05639648 12.4074707 C77.70577148 13.15754395 77.35514648 13.90761719 76.99389648 14.68041992 C76.63295898 15.47174316 76.27202148 16.26306641 75.90014648 17.07836914 C72.99689105 23.35993526 69.80728838 29.4613629 66.49780273 35.53588867 C61.45010452 44.81507206 56.81268249 54.31996434 52.43139648 63.93041992 C52.12000732 64.58969482 51.80861816 65.24896973 51.48779297 65.92822266 C49.03563858 71.4322315 49.69220962 74.01003369 51.65795898 79.48510742 C56.07147343 90.45988933 61.01553924 101.13230919 66.17358398 111.77416992 C71.34707602 122.4724078 76.28494982 133.12660783 80.49389648 144.24291992 C80.87030273 145.14268555 81.24670898 146.04245117 81.63452148 146.96948242 C82.61045402 149.55126758 82.7221059 151.50440698 82.49389648 154.24291992 C79.84345998 156.89335643 72.18556408 155.47782292 68.61889648 155.49291992 C66.80325195 155.52385742 66.80325195 155.52385742 64.95092773 155.55541992 C63.79206055 155.56057617 62.63319336 155.56573242 61.43920898 155.57104492 C60.37202637 155.58039063 59.30484375 155.58973633 58.20532227 155.59936523 C55.49389648 155.24291992 55.49389648 155.24291992 53.82226562 154.1953125 C51.80831431 151.23527416 50.58496482 147.9944514 49.29467773 144.67651367 C48.67731266 143.13403776 48.05827948 141.59222865 47.43774414 140.05102539 C46.9592099 138.85857208 46.9592099 138.85857208 46.4710083 137.64202881 C43.99285072 131.55739266 41.31733262 125.55504719 38.66699219 119.54394531 C37.65975197 117.25626002 36.65983367 114.9654527 35.65991211 112.67456055 C35.01516907 111.20887245 34.37000376 109.74337002 33.72436523 108.27807617 C33.4285405 107.59802017 33.13271576 106.91796417 32.82792664 106.21730042 C31.60943388 103.47060205 30.63828678 101.38731021 28.49389648 99.24291992 C28.20514648 99.98541992 27.91639648 100.72791992 27.61889648 101.49291992 C26.49389648 104.24291992 26.49389648 104.24291992 25.44152832 106.13021851 C24.36900311 108.52136393 24.23105662 110.18485705 24.20678711 112.79614258 C24.1933728 113.69031891 24.1799585 114.58449524 24.1661377 115.50576782 C24.1608606 116.46316864 24.1555835 117.42056946 24.15014648 118.40698242 C24.13552368 119.39540131 24.12090088 120.38382019 24.10583496 121.40219116 C24.04355296 125.62989539 24.00386028 129.85774406 23.9621582 134.08569336 C23.92851744 137.17211492 23.88339362 140.2582205 23.83764648 143.34448242 C23.83236938 144.3059317 23.82709229 145.26738098 23.82165527 146.25796509 C23.80824097 147.1458371 23.79482666 148.03370911 23.78100586 148.94848633 C23.7737146 149.73140045 23.76642334 150.51431458 23.75891113 151.32095337 C23.49389648 153.24291992 23.49389648 153.24291992 21.49389648 155.24291992 C19.09545898 155.50170898 19.09545898 155.50170898 16.11889648 155.50854492 C15.05155273 155.51112305 13.98420898 155.51370117 12.88452148 155.51635742 C11.76561523 155.50862305 10.64670898 155.50088867 9.49389648 155.49291992 C8.37499023 155.5006543 7.25608398 155.50838867 6.10327148 155.51635742 C5.03592773 155.5137793 3.96858398 155.51120117 2.86889648 155.50854492 C1.88663086 155.50628906 0.90436523 155.5040332 -0.10766602 155.50170898 C-2.50610352 155.24291992 -2.50610352 155.24291992 -4.50610352 153.24291992 C-4.7577858 150.64418793 -4.7577858 150.64418793 -4.7600708 147.2833252 C-4.76853027 145.37773079 -4.76853027 145.37773079 -4.77716064 143.43363953 C-4.77327168 142.01785222 -4.76917532 140.60206547 -4.76489258 139.1862793 C-4.76760136 137.70156177 -4.77116166 136.21684558 -4.7755127 134.73213196 C-4.78465238 130.69295538 -4.78108598 126.65388065 -4.77475452 122.61470222 C-4.76970268 118.39421431 -4.7743837 114.17373531 -4.77752686 109.95324707 C-4.78116889 102.86473011 -4.7763612 95.77625478 -4.7668457 88.68774414 C-4.75596069 80.48411457 -4.7594861 72.28058439 -4.77049851 64.07695723 C-4.77956465 57.0425403 -4.78085997 50.00815335 -4.77562118 42.97373247 C-4.77249776 38.76841635 -4.77210228 34.563147 -4.77869415 30.35783386 C-4.78445723 26.40489723 -4.78048989 22.45208918 -4.76890564 18.49916649 C-4.76625347 17.04548036 -4.7670336 15.59178347 -4.77143097 14.13810158 C-4.7768657 12.15957644 -4.76885398 10.18102775 -4.7600708 8.20251465 C-4.75931675 7.09342995 -4.7585627 5.98434525 -4.7577858 4.84165192 C-4.4137899 1.28974062 -3.56933694 0.34598054 0 0 Z " fill="#67BB3A" transform="translate(685.506103515625,125.757080078125)"/>
<path d="M0 0 C10.89 0 21.78 0 33 0 C35.34828246 8.2189886 37.63653619 16.26108917 39.4453125 24.58203125 C39.76224815 26.01707504 39.76224815 26.01707504 40.08558655 27.48110962 C40.77032393 30.59051416 41.44800379 33.70140159 42.125 36.8125 C42.36199615 37.89403351 42.59899231 38.97556702 42.84317017 40.08987427 C46.66448021 57.52998612 50.28647819 75.00663648 53.80517578 92.5100708 C56.83540519 107.57761492 60.07518802 122.57847545 63.66479492 137.52319336 C63.9033596 138.53147186 63.9033596 138.53147186 64.14674377 139.56011963 C64.56731211 141.33585576 64.99547917 143.10978757 65.42431641 144.88354492 C66.00229737 148.0124368 66.17919762 150.82610082 66 154 C65 155 65 155 62.49975586 155.11352539 C61.41573486 155.10828857 60.33171387 155.10305176 59.21484375 155.09765625 C58.04501953 155.09443359 56.87519531 155.09121094 55.66992188 155.08789062 C54.43822266 155.07951172 53.20652344 155.07113281 51.9375 155.0625 C50.08415039 155.05573242 50.08415039 155.05573242 48.19335938 155.04882812 C45.12885883 155.03699608 42.06445279 155.02051173 39 155 C37.24348089 149.30657918 35.5797116 143.63899142 34.3125 137.8125 C34.06113281 136.68457031 33.80976563 135.55664062 33.55078125 134.39453125 C33 131 33 131 33 124 C22.11 124 11.22 124 0 124 C-0.33 127.3 -0.66 130.6 -1 134 C-1.27960294 135.77762268 -1.58427761 137.55193632 -1.9375 139.31640625 C-2.19660156 140.61481445 -2.19660156 140.61481445 -2.4609375 141.93945312 C-2.63882812 142.80505859 -2.81671875 143.67066406 -3 144.5625 C-3.17789062 145.46291016 -3.35578125 146.36332031 -3.5390625 147.29101562 C-4.86969312 153.86969312 -4.86969312 153.86969312 -6 155 C-7.78071246 155.08726223 -9.5648314 155.10699041 -11.34765625 155.09765625 C-12.42724609 155.09443359 -13.50683594 155.09121094 -14.61914062 155.08789062 C-15.75544922 155.07951172 -16.89175781 155.07113281 -18.0625 155.0625 C-19.20267578 155.05798828 -20.34285156 155.05347656 -21.51757812 155.04882812 C-24.34510351 155.03699747 -27.1725264 155.0205141 -30 155 C-30.48561053 141.88394302 -29.2928664 130.13348192 -26.3125 117.375 C-25.79276529 115.06697562 -25.27883336 112.75770518 -24.76498413 110.44836426 C-24.41097073 108.86050371 -24.05450606 107.27318788 -23.69570923 105.68640137 C-22.21436315 99.10043111 -20.88059784 92.48984691 -19.57421875 85.8671875 C-17.26395611 74.17938395 -14.77131613 62.53770256 -12.19775391 50.90527344 C-11.49713029 47.73702306 -10.80105126 44.56779803 -10.10546875 41.3984375 C-7.87752559 31.27572417 -5.6018765 21.16553101 -3.21875 11.078125 C-3.00988159 10.18865173 -2.80101318 9.29917847 -2.58581543 8.38275146 C-2.39185181 7.56969543 -2.19788818 6.7566394 -1.99804688 5.91894531 C-1.82881714 5.20716125 -1.6595874 4.4953772 -1.48522949 3.76202393 C-1 2 -1 2 0 0 Z M16 39 C14.59212465 46.5618789 13.18651831 54.12417704 11.7824707 61.68676758 C11.30480038 64.25815325 10.82661531 66.82944336 10.34790039 69.40063477 C9.65895631 73.10147352 8.97187862 76.80265468 8.28515625 80.50390625 C7.96479149 82.22148888 7.96479149 82.22148888 7.63795471 83.97377014 C7.33775673 85.59465797 7.33775673 85.59465797 7.03149414 87.24829102 C6.85606583 88.19205093 6.68063751 89.13581085 6.49989319 90.10816956 C5.93182288 93.39439762 5.47163543 96.69855201 5 100 C12.26 100 19.52 100 27 100 C27.0103044 93.85617718 27.0103044 93.85617718 26.18969727 88.00195312 C25.92425865 86.62517395 25.92425865 86.62517395 25.65345764 85.22058105 C25.45973068 84.25060181 25.26600372 83.28062256 25.06640625 82.28125 C24.86901352 81.26454224 24.67162079 80.24783447 24.46824646 79.20031738 C23.83912901 75.9656454 23.20120398 72.73279141 22.5625 69.5 C21.92903715 66.26690585 21.29743245 63.03345966 20.66746521 59.79968262 C20.27587584 57.79245782 19.88199767 55.78567776 19.48548889 53.77941895 C18.52087088 48.86369386 17.65091267 43.96733356 17 39 C16.67 39 16.34 39 16 39 Z " fill="#67BB3A" transform="translate(402,126)"/>
<path d="M0 0 C0.71484055 0.00202423 1.42968109 0.00404846 2.16618347 0.00613403 C2.91574814 0.00438171 3.66531281 0.00262939 4.43759155 0.00082397 C6.92722354 -0.00359463 9.41678508 -0.00065653 11.90641785 0.00271606 C13.62895217 0.00204303 15.35148639 0.001073 17.07402039 -0.00018311 C20.68889772 -0.00166009 24.3037504 0.00049449 27.91862488 0.00515747 C32.56283277 0.01085476 37.20698289 0.00757576 41.85118866 0.00158501 C45.40953511 -0.00202059 48.96786775 -0.00088203 52.5262146 0.0017128 C54.23911547 0.00238207 55.95201757 0.00155363 57.66491699 -0.00076675 C60.05469606 -0.00329326 62.44438026 0.00054727 64.83415222 0.00613403 C65.90641304 0.00309769 65.90641304 0.00309769 67.00033569 0 C71.88590516 0.02126588 71.88590516 0.02126588 73.00016785 1.13552856 C73.28027968 5.10759927 73.23195961 9.09225272 73.25016785 13.07302856 C73.27079285 14.19644653 73.29141785 15.3198645 73.31266785 16.47732544 C73.32040222 18.08510864 73.32040222 18.08510864 73.32829285 19.72537231 C73.33763855 20.71400269 73.34698425 21.70263306 73.35661316 22.72122192 C73.18017273 23.91630371 73.18017273 23.91630371 73.00016785 25.13552856 C69.75732006 27.29742709 68.89920564 27.38179611 65.1615448 27.36257935 C63.69035942 27.36235275 63.69035942 27.36235275 62.18945312 27.36212158 C60.60495613 27.34663773 60.60495613 27.34663773 58.9884491 27.33084106 C57.90508774 27.32801117 56.82172638 27.32518127 55.70553589 27.32226562 C52.24113477 27.31105948 48.776991 27.28595391 45.31266785 27.26052856 C42.96566637 27.25049933 40.61866084 27.24137339 38.27165222 27.23318481 C32.51431155 27.21281927 26.75752819 27.17367081 21.00016785 27.13552856 C21.00016785 39.34552856 21.00016785 51.55552856 21.00016785 64.13552856 C23.72008972 64.11232544 26.4400116 64.08912231 29.24235535 64.06521606 C31.87011753 64.04962863 34.4978746 64.03747872 37.12565613 64.02566528 C38.95510657 64.01559372 40.78454088 64.00193581 42.61393738 63.98464966 C45.24011719 63.9604518 47.8660846 63.94905724 50.49235535 63.94021606 C51.31323639 63.92989349 52.13411743 63.91957092 52.97987366 63.90893555 C54.98805927 63.90853672 56.99572167 64.01303317 59.00016785 64.13552856 C62.04120351 67.17656422 61.29347632 70.18393942 61.32243347 74.34060669 C61.31759949 75.94065552 61.31759949 75.94065552 61.31266785 77.57302856 C61.32878113 78.6358606 61.34489441 79.69869263 61.36149597 80.79373169 C61.3621405 81.8127356 61.36278503 82.8317395 61.3634491 83.88162231 C61.36643005 84.81675659 61.36941101 85.75189087 61.3724823 86.71536255 C61.00016785 89.13552856 61.00016785 89.13552856 60.00163269 90.94558716 C56.74657682 92.88083262 53.28839317 92.50017659 49.6134491 92.42849731 C48.79644028 92.42425247 47.97943146 92.42000763 47.13766479 92.41563416 C44.52899678 92.39884547 41.92110222 92.36119375 39.31266785 92.32302856 C37.5437988 92.30798193 35.77491764 92.29429349 34.00602722 92.28201294 C29.67020329 92.2514933 25.33605095 92.19277494 21.00016785 92.13552856 C21.00016785 104.01552856 21.00016785 115.89552856 21.00016785 128.13552856 C26.37942566 128.10072388 26.37942566 128.10072388 31.86735535 128.06521606 C35.32910305 128.04963204 38.79084688 128.03748017 42.25260925 128.02566528 C44.66408529 128.01558903 47.07554906 128.00192775 49.48698425 127.98464966 C52.9471387 127.96047266 56.40713204 127.94906188 59.86735535 127.94021606 C60.95072174 127.92989349 62.03408813 127.91957092 63.15028381 127.90893555 C64.15117035 127.90878448 65.15205688 127.90863342 66.18327332 127.90847778 C67.06707672 127.90403656 67.95088013 127.89959534 68.86146545 127.89501953 C71.00016785 128.13552856 71.00016785 128.13552856 73.00016785 130.13552856 C73.25895691 132.44216919 73.25895691 132.44216919 73.26579285 135.29177856 C73.26966003 136.82511841 73.26966003 136.82511841 73.27360535 138.38943481 C73.26587097 139.46064575 73.2581366 140.53185669 73.25016785 141.63552856 C73.26176941 143.24234497 73.26176941 143.24234497 73.27360535 144.88162231 C73.27102722 145.90384888 73.2684491 146.92607544 73.26579285 147.97927856 C73.26353699 148.91964966 73.26128113 149.86002075 73.25895691 150.82888794 C73.00016785 153.13552856 73.00016785 153.13552856 71.00016785 155.13552856 C68.56633154 155.3284528 66.24682429 155.39793878 63.81242371 155.37844849 C63.07246658 155.38034683 62.33250946 155.38224518 61.57012939 155.38420105 C59.11831652 155.38791318 56.66679825 155.37719946 54.2150116 155.36599731 C52.51632726 155.36480575 50.81764226 155.3643523 49.11895752 155.36460876 C45.55710228 155.3630432 41.99534744 155.35474732 38.43351746 155.34133911 C33.85771197 155.32433625 29.2820168 155.32052509 24.70618343 155.32128429 C21.19844501 155.32101297 17.69073092 155.31553811 14.18300056 155.30828285 C12.49522142 155.30509101 10.80743951 155.30312758 9.11965752 155.30238914 C6.76589591 155.30023175 4.41225362 155.29150104 2.05851746 155.28079224 C1.35459869 155.28124542 0.65067993 155.28169861 -0.0745697 155.28216553 C-4.88535697 155.25000375 -4.88535697 155.25000375 -5.99983215 154.13552856 C-6.09871028 152.16355318 -6.12615471 150.18798417 -6.1268158 148.21353149 C-6.12963562 146.92623642 -6.13245544 145.63894135 -6.13536072 144.31263733 C-6.13341612 142.87274156 -6.13136793 141.43284593 -6.12922668 139.99295044 C-6.13058067 138.48705503 -6.13236058 136.98115995 -6.13453674 135.4752655 C-6.13911144 131.37414049 -6.13732137 127.27304052 -6.13415766 123.17191505 C-6.13163424 118.88956253 -6.13397154 114.60721222 -6.13554382 110.32485962 C-6.13736557 103.13202528 -6.13495907 95.93920119 -6.13020325 88.74636841 C-6.12476062 80.41836523 -6.12652327 72.09038652 -6.13202965 63.76238394 C-6.13656063 56.62525011 -6.13721141 49.48812367 -6.13459098 42.35098886 C-6.13302812 38.08254501 -6.13283469 33.81411268 -6.13612747 29.54566956 C-6.13900596 25.53368923 -6.1370309 21.5217406 -6.13123322 17.50976372 C-6.1299055 16.03308096 -6.13029993 14.55639555 -6.13249588 13.07971382 C-6.1352069 11.0723187 -6.131213 9.06491777 -6.1268158 7.05752563 C-6.12643877 5.93147163 -6.12606174 4.80541763 -6.12567329 3.64524078 C-5.90280004 -0.79963097 -3.95813486 0.01722895 0 0 Z " fill="#68BB3B" transform="translate(1300.9998321533203,125.86447143554688)"/>
<path d="M0 0 C4.31248609 -0.02886537 8.62494762 -0.04675255 12.9375 -0.0625 C14.16919922 -0.07087891 15.40089844 -0.07925781 16.66992188 -0.08789062 C17.83974609 -0.09111328 19.00957031 -0.09433594 20.21484375 -0.09765625 C21.84087524 -0.10551147 21.84087524 -0.10551147 23.49975586 -0.11352539 C26 0 26 0 27 1 C27.09887812 2.97197538 27.12632256 4.9475444 27.12698364 6.92199707 C27.12980347 8.20929214 27.13262329 9.49658722 27.13552856 10.82289124 C27.13358396 12.262787 27.13153578 13.70268264 27.12939453 15.14257812 C27.13074851 16.64847354 27.13252843 18.15436861 27.13470459 19.66026306 C27.13927928 23.76138807 27.13748922 27.86248804 27.1343255 31.96361351 C27.13180209 36.24596603 27.13413939 40.52831634 27.13571167 44.81066895 C27.13753342 52.00350328 27.13512692 59.19632737 27.13037109 66.38916016 C27.12492846 74.71716334 27.12669112 83.04514204 27.1321975 91.37314463 C27.13672848 98.51027846 27.13737925 105.6474049 27.13475883 112.7845397 C27.13319597 117.05298355 27.13300253 121.32141588 27.13629532 125.58985901 C27.13917381 129.60183934 27.13719875 133.61378796 27.13140106 137.62576485 C27.13007334 139.10244761 27.13046778 140.57913302 27.13266373 142.05581474 C27.13537474 144.06320987 27.13138084 146.07061079 27.12698364 148.07800293 C27.12660662 149.20405693 27.12622959 150.33011093 27.12584114 151.49028778 C27 154 27 154 26 155 C24.15840977 155.09959621 22.31303033 155.13080411 20.46875 155.1328125 C19.34855469 155.13410156 18.22835937 155.13539063 17.07421875 155.13671875 C15.89472656 155.13285156 14.71523438 155.12898437 13.5 155.125 C11.73076172 155.13080078 11.73076172 155.13080078 9.92578125 155.13671875 C8.24548828 155.13478516 8.24548828 155.13478516 6.53125 155.1328125 C5.49548828 155.13168457 4.45972656 155.13055664 3.39257812 155.12939453 C1 155 1 155 0 154 C-0.096708 152.01305149 -0.12187052 150.02260987 -0.12025452 148.03330994 C-0.12162918 146.73615555 -0.12300385 145.43900116 -0.12442017 144.10253906 C-0.12088055 142.6516111 -0.11724573 141.20068337 -0.11352539 139.74975586 C-0.11324353 138.23238629 -0.11340123 136.71501658 -0.1139679 135.19764709 C-0.11425591 131.06559484 -0.10835858 126.93357137 -0.10139394 122.80152583 C-0.09516102 118.48801108 -0.09455665 114.17449573 -0.09336853 109.86097717 C-0.09025503 101.68699883 -0.08204139 93.51303379 -0.07201904 85.33906132 C-0.06085848 76.03571031 -0.0553476 66.73235868 -0.05032361 57.42900264 C-0.03985879 38.28599421 -0.02225899 19.14299817 0 0 Z " fill="#68BB3B" transform="translate(881,126)"/>
<path d="M0 0 C0.33 0 0.66 0 1 0 C1 7.26 1 14.52 1 22 C8.59 22 16.18 22 24 22 C23.67 22.66 23.34 23.32 23 24 C15.08 24 7.16 24 -1 24 C-1.020625 20.968125 -1.04125 17.93625 -1.0625 14.8125 C-1.071604 13.86608643 -1.08070801 12.91967285 -1.09008789 11.94458008 C-1.10361657 7.83317188 -1.05386027 4.00798828 0 0 Z " fill="#7EC558" transform="translate(373,257)"/>
</svg>
